<svg xmlns="http://www.w3.org/2000/svg" viewBox="0 0 1062.99 144.66"><title>Fichier 1</title><g id="Calque_2" data-name="Calque 2"><g id="svg2"><g id="layer1"><g id="g3278"><path id="path2530" d="M36.24,115.82H46.4c6.61,0,12.83-5.88,12.83-17.17C59.24,87.89,53,81.9,46.4,81.9H36.24Zm0-58.48H45c7.38,0,11.47-6.62,11.47-14,0-7.79-4.09-14.43-11.47-14.43h-8.8ZM0,2.73H54.75c26,0,38,13.88,38,34.74,0,14.77-6.45,28-21.86,31.18V69c18.33,1.76,25.76,17.35,25.76,31.76,0,24.18-11.66,41.1-41.92,41.1H0Z"/><path id="path2534" d="M156.79,120.11c11.1,0,12.31-10.17,12.31-47.8s-1.21-47.75-12.31-47.75-12.25,10.18-12.25,47.75,1.11,47.8,12.25,47.8M156.79,0c37.06,0,49.7,20.28,49.7,72.31s-12.64,72.35-49.7,72.35-49.68-20.26-49.68-72.35S119.76,0,156.79,0"/><path id="path2538" d="M220.13,2.73h51.81l14.65,82.45H287L301.62,2.73h51.82V141.88H319.54V38.21h-.45L299.85,141.88H273.72L254.43,38.21H254V141.88H220.13Z"/><path id="path2542" d="M405.66,115.82h10.11c6.61,0,12.89-5.88,12.89-17.17,0-10.75-6.27-16.75-12.89-16.75H405.66Zm0-58.48h8.77c7.38,0,11.51-6.62,11.51-14,0-7.79-4.13-14.43-11.51-14.43h-8.77ZM369.35,2.73h54.81c25.88,0,38,13.88,38,34.74,0,14.77-6.42,28-21.85,31.18V69c18.31,1.76,25.79,17.35,25.79,31.76,0,24.18-11.76,41.1-41.94,41.1H369.35Z"/><path id="path2546" d="M525,31.21h-.4l-10,59h20.35ZM502,2.73h45.57l33.93,139.16H542.86l-3.7-24.38H510.31l-3.68,24.38H468.06Z"/><path id="path2550" d="M627.61,61.62h7.26C645.15,61.62,650,55,650,45c0-11.29-4.47-16.16-15.42-16.16h-7ZM591.37,2.73h56.76c27.63,0,38.21,15.6,38.21,37.06,0,18.51-7.29,30.55-23.8,33.14v.38c17.53,1.55,22.76,12.6,22.76,31.22v11.84c0,7.21,0,16.54,1.79,19.33,1,1.5,1.77,3.1,4.08,4.24v1.95H652.55c-3.46-7.37-3.46-20.65-3.46-26.46V106c0-15.77-3.16-19.88-11.88-19.88h-9.6v55.75H591.37Z"/><path id="path2554" d="M738.3,115.82h7.24c14,0,15.77-5.88,15.77-43.51s-1.73-43.44-15.77-43.44H738.3ZM702,2.73h52.59c41.93,0,44.09,33.15,44.09,69.58s-2.15,69.57-44.09,69.57H702Z"/><path id="path2556" d="M813.3,2.72h36.22V141.88H813.3Z"/><path id="path2560" d="M865.83,2.73h82.4V32.34H902v23.8h43.3V84.6H902v27.69h48v29.6H865.83Z"/><path id="path2564" d="M999.48,61.62h7.2c10.37,0,15.22-6.61,15.22-16.6,0-11.29-4.48-16.16-15.38-16.16h-7ZM963.23,2.73h56.7c27.73,0,38.19,15.6,38.19,37.06,0,18.51-7.16,30.55-23.74,33.14v.38c17.59,1.55,22.81,12.6,22.81,31.22v11.84c0,7.21,0,16.54,1.76,19.33,1,1.5,1.79,3.1,4,4.24v1.95h-38.54c-3.5-7.37-3.5-20.65-3.5-26.46V106c0-15.77-3.16-19.88-11.94-19.88h-9.53v55.75H963.23Z"/></g></g></g></g></svg>